# Blender 5.0.1
# www.blender.org
mtllib node.mtl
o Sphere
v 0.000000 1.000000 0.000000
v 0.000000 0.382683 -0.923880
v 0.000000 0.000000 -1.000000
v 0.000000 -0.382683 -0.923880
v 0.000000 -0.923880 -0.382683
v 0.000000 -1.000000 0.000000
v 0.146447 0.923880 -0.353553
v 0.270598 0.707107 -0.653281
v 0.353553 0.382683 -0.853553
v 0.382683 0.000000 -0.923880
v 0.353553 -0.382683 -0.853553
v 0.270598 -0.707107 -0.653281
v 0.146447 -0.923880 -0.353553
v 0.270598 0.923880 -0.270598
v 0.500000 0.707107 -0.500000
v 0.653282 0.382683 -0.653281
v 0.707107 0.000000 -0.707107
v 0.653282 -0.382683 -0.653281
v 0.500000 -0.707107 -0.500000
v 0.270598 -0.923880 -0.270598
v 0.353553 0.923880 -0.146447
v 0.653281 0.707107 -0.270598
v 0.853553 0.382683 -0.353553
v 0.923880 0.000000 -0.382683
v 0.853553 -0.382683 -0.353553
v 0.653281 -0.707107 -0.270598
v 0.353553 -0.923880 -0.146447
v 0.382683 0.923880 0.000000
v 0.707107 0.707107 0.000000
v 0.923880 0.382683 0.000000
v 1.000000 0.000000 0.000000
v 0.923880 -0.382683 0.000000
v 0.707107 -0.707107 0.000000
v 0.382683 -0.923880 0.000000
v 0.353553 0.923880 0.146447
v 0.653281 0.707107 0.270598
v 0.853553 0.382683 0.353554
v 0.923879 0.000000 0.382684
v 0.853553 -0.382683 0.353554
v 0.653281 -0.707107 0.270598
v 0.353553 -0.923880 0.146447
v 0.270598 0.923880 0.270598
v 0.500000 0.707107 0.500000
v 0.653281 0.382683 0.653282
v 0.707107 0.000000 0.707107
v 0.653281 -0.382683 0.653282
v 0.500000 -0.707107 0.500000
v 0.270598 -0.923880 0.270598
v 0.146447 0.923880 0.353553
v 0.270598 0.707107 0.653281
v 0.353553 0.382683 0.853553
v 0.382683 0.000000 0.923880
v 0.353553 -0.382683 0.853553
v 0.270598 -0.707107 0.653281
v 0.146447 -0.923880 0.353553
v -0.000000 0.923880 0.382683
v -0.000000 0.707107 0.707107
v -0.000000 0.382683 0.923879
v -0.000000 0.000000 1.000000
v -0.000000 -0.382683 0.923879
v -0.000000 -0.707107 0.707107
v -0.000000 -0.923880 0.382683
v -0.146447 0.923880 0.353553
v -0.270598 0.707107 0.653281
v -0.353554 0.382683 0.853553
v -0.382684 0.000000 0.923879
v -0.353554 -0.382683 0.853553
v -0.270598 -0.707107 0.653281
v -0.146447 -0.923880 0.353553
v -0.270598 0.923880 0.270598
v -0.500000 0.707107 0.500000
v -0.653282 0.382683 0.653281
v -0.707107 0.000000 0.707106
v -0.653282 -0.382683 0.653281
v -0.500000 -0.707107 0.500000
v -0.270598 -0.923880 0.270598
v -0.353553 0.923880 0.146446
v -0.653281 0.707107 0.270598
v -0.853553 0.382683 0.353553
v -0.923880 0.000000 0.382683
v -0.853553 -0.382683 0.353553
v -0.653281 -0.707107 0.270598
v -0.353553 -0.923880 0.146446
v -0.382683 0.923880 -0.000000
v -0.707107 0.707107 -0.000000
v -0.923879 0.382683 -0.000000
v -1.000000 0.000000 -0.000001
v -0.923879 -0.382683 -0.000000
v -0.707107 -0.707107 -0.000000
v -0.382683 -0.923880 -0.000000
v -0.353553 0.923880 -0.146447
v -0.653281 0.707107 -0.270598
v -0.853553 0.382683 -0.353554
v -0.923879 0.000000 -0.382684
v -0.853553 -0.382683 -0.353554
v -0.653281 -0.707107 -0.270598
v -0.353553 -0.923880 -0.146447
v -0.270598 0.923880 -0.270598
v -0.500000 0.707107 -0.500000
v -0.653281 0.382683 -0.653282
v -0.707106 0.000000 -0.707107
v -0.653281 -0.382683 -0.653282
v -0.500000 -0.707107 -0.500000
v -0.270598 -0.923880 -0.270598
v -0.146446 0.923880 -0.353554
v -0.270598 0.707107 -0.653281
v -0.353553 0.382683 -0.853553
v -0.382683 0.000000 -0.923880
v -0.353553 -0.382683 -0.853553
v -0.270598 -0.707107 -0.653281
v -0.146446 -0.923880 -0.353554
v 0.000000 0.923880 -0.382683
v 0.000000 0.707107 -0.707107
v 0.000000 -0.707107 -0.707107
vn 0.1098 -0.8264 -0.5522
vn 0.1915 -0.1915 -0.9626
vn 0.1632 0.5481 -0.8203
vn 0.0388 0.9800 -0.1949
vn 0.0388 -0.9800 -0.1949
vn 0.1632 -0.5481 -0.8203
vn 0.1915 0.1915 -0.9626
vn 0.1098 0.8264 -0.5522
vn 0.4647 0.5481 -0.6954
vn 0.1104 0.9800 -0.1653
vn 0.1104 -0.9800 -0.1653
vn 0.4647 -0.5481 -0.6954
vn 0.5453 0.1915 -0.8161
vn 0.3128 0.8264 -0.4681
vn 0.3128 -0.8264 -0.4681
vn 0.5453 -0.1915 -0.8161
vn 0.1653 -0.9800 -0.1104
vn 0.6954 -0.5481 -0.4647
vn 0.8161 0.1915 -0.5453
vn 0.4681 0.8264 -0.3128
vn 0.4681 -0.8264 -0.3128
vn 0.8161 -0.1915 -0.5453
vn 0.6954 0.5481 -0.4647
vn 0.1653 0.9800 -0.1104
vn 0.5522 0.8264 -0.1098
vn 0.5522 -0.8264 -0.1098
vn 0.9626 -0.1915 -0.1915
vn 0.8203 0.5481 -0.1632
vn 0.1949 0.9800 -0.0388
vn 0.1949 -0.9800 -0.0388
vn 0.8203 -0.5481 -0.1632
vn 0.9626 0.1915 -0.1915
vn 0.5522 -0.8264 0.1098
vn 0.9626 -0.1915 0.1915
vn 0.8203 0.5481 0.1632
vn 0.1949 0.9800 0.0388
vn 0.1949 -0.9800 0.0388
vn 0.8203 -0.5481 0.1632
vn 0.9626 0.1915 0.1915
vn 0.5522 0.8264 0.1098
vn 0.1653 0.9800 0.1104
vn 0.1653 -0.9800 0.1104
vn 0.6954 -0.5481 0.4647
vn 0.8161 0.1915 0.5453
vn 0.4681 0.8264 0.3128
vn 0.4681 -0.8264 0.3128
vn 0.8161 -0.1915 0.5453
vn 0.6954 0.5481 0.4647
vn 0.4647 -0.5481 0.6954
vn 0.5453 0.1915 0.8161
vn 0.3128 0.8264 0.4681
vn 0.3128 -0.8264 0.4681
vn 0.5453 -0.1915 0.8161
vn 0.4647 0.5481 0.6954
vn 0.1104 0.9800 0.1653
vn 0.1104 -0.9800 0.1653
vn 0.1098 -0.8264 0.5522
vn 0.1915 -0.1915 0.9626
vn 0.1632 0.5481 0.8203
vn 0.0388 0.9800 0.1949
vn 0.0388 -0.9800 0.1949
vn 0.1632 -0.5481 0.8203
vn 0.1915 0.1915 0.9626
vn 0.1098 0.8264 0.5522
vn -0.1915 -0.1915 0.9626
vn -0.1632 0.5481 0.8203
vn -0.0388 0.9800 0.1949
vn -0.0388 -0.9800 0.1949
vn -0.1632 -0.5481 0.8203
vn -0.1915 0.1915 0.9626
vn -0.1098 0.8264 0.5522
vn -0.1098 -0.8264 0.5522
vn -0.1104 -0.9800 0.1653
vn -0.4647 -0.5481 0.6954
vn -0.5453 0.1915 0.8161
vn -0.3128 0.8264 0.4681
vn -0.3128 -0.8264 0.4681
vn -0.5453 -0.1915 0.8161
vn -0.4647 0.5481 0.6954
vn -0.1104 0.9800 0.1653
vn -0.8161 0.1915 0.5453
vn -0.4681 0.8264 0.3128
vn -0.4681 -0.8264 0.3128
vn -0.8161 -0.1915 0.5453
vn -0.6954 0.5481 0.4647
vn -0.1653 0.9800 0.1104
vn -0.1653 -0.9800 0.1104
vn -0.6954 -0.5481 0.4647
vn -0.5522 -0.8264 0.1098
vn -0.9626 -0.1915 0.1915
vn -0.8203 0.5481 0.1632
vn -0.1949 0.9800 0.0388
vn -0.1949 -0.9800 0.0388
vn -0.8203 -0.5481 0.1632
vn -0.9626 0.1915 0.1915
vn -0.5522 0.8264 0.1098
vn -0.8203 0.5481 -0.1632
vn -0.1949 0.9800 -0.0388
vn -0.1949 -0.9800 -0.0388
vn -0.8203 -0.5481 -0.1632
vn -0.9626 0.1915 -0.1915
vn -0.5522 0.8264 -0.1098
vn -0.5522 -0.8264 -0.1098
vn -0.9626 -0.1915 -0.1915
vn -0.1653 -0.9800 -0.1104
vn -0.6954 -0.5481 -0.4647
vn -0.8161 0.1915 -0.5453
vn -0.4681 0.8264 -0.3128
vn -0.4681 -0.8264 -0.3128
vn -0.8161 -0.1915 -0.5453
vn -0.6954 0.5481 -0.4647
vn -0.1653 0.9800 -0.1104
vn -0.3128 0.8264 -0.4681
vn -0.3128 -0.8264 -0.4681
vn -0.5453 -0.1915 -0.8161
vn -0.4647 0.5481 -0.6954
vn -0.1104 0.9800 -0.1653
vn -0.1104 -0.9800 -0.1653
vn -0.4647 -0.5481 -0.6954
vn -0.5453 0.1915 -0.8161
vn -0.1098 -0.8264 -0.5522
vn -0.1915 -0.1915 -0.9626
vn -0.1632 0.5481 -0.8203
vn -0.0388 0.9800 -0.1949
vn -0.0388 -0.9800 -0.1949
vn -0.1632 -0.5481 -0.8203
vn -0.1915 0.1915 -0.9626
vn -0.1098 0.8264 -0.5522
vt 0.318123 0.206936
vt 0.277775 0.126240
vt 0.318123 0.126240
vt 0.318123 0.368329
vt 0.277775 0.287633
vt 0.318123 0.287633
vt 0.348892 0.719240
vt 0.286392 0.594240
vt 0.348892 0.594240
vt 0.355044 0.701515
vt 0.323794 0.826515
vt 0.292544 0.701515
vt 0.297949 0.045543
vt 0.277775 0.206936
vt 0.373500 0.796024
vt 0.311000 0.671024
vt 0.373500 0.671024
vt 0.286392 0.844240
vt 0.286392 0.719240
vt 0.223892 0.594240
vt 0.261294 0.826515
vt 0.230044 0.701515
vt 0.257601 0.045543
vt 0.237427 0.126240
vt 0.237427 0.206936
vt 0.311000 0.796024
vt 0.248500 0.671024
vt 0.223892 0.719240
vt 0.237427 0.368329
vt 0.237427 0.287633
vt 0.217253 0.045543
vt 0.197078 0.126240
vt 0.197078 0.287633
vt 0.197078 0.206936
vt 0.186000 0.796024
vt 0.186000 0.671024
vt 0.223892 0.844240
vt 0.161392 0.719240
vt 0.161392 0.594240
vt 0.198794 0.826515
vt 0.167544 0.701515
vt 0.161392 0.844240
vt 0.098892 0.719240
vt 0.156730 0.126240
vt 0.156730 0.368329
vt 0.156730 0.287633
vt 0.098892 0.594240
vt 0.136294 0.826515
vt 0.105044 0.701515
vt 0.176904 0.045543
vt 0.156730 0.206936
vt 0.123500 0.671024
vt 0.805140 0.207433
vt 0.782011 0.253691
vt 0.782011 0.207433
vt 0.805140 0.346207
vt 0.782011 0.299949
vt 0.805140 0.299949
vt 0.848201 0.731544
vt 0.785701 0.606544
vt 0.848201 0.606544
vt 0.909720 0.694132
vt 0.878470 0.819132
vt 0.847220 0.694132
vt 0.793575 0.161176
vt 0.805140 0.253691
vt 0.860505 0.781260
vt 0.798005 0.656260
vt 0.860505 0.656260
vt 0.785701 0.856544
vt 0.785701 0.731544
vt 0.815970 0.819132
vt 0.784720 0.694132
vt 0.770447 0.161176
vt 0.758882 0.207433
vt 0.758882 0.253691
vt 0.735505 0.781260
vt 0.735505 0.656260
vt 0.723201 0.856544
vt 0.723201 0.731544
vt 0.782011 0.346207
vt 0.758882 0.299949
vt 0.723201 0.606544
vt 0.735753 0.299949
vt 0.735753 0.253691
vt 0.673005 0.656260
vt 0.660701 0.731544
vt 0.735753 0.207433
vt 0.735753 0.346207
vt 0.660701 0.606544
vt 0.753470 0.819132
vt 0.722220 0.694132
vt 0.747318 0.161176
vt 0.712624 0.253691
vt 0.712624 0.207433
vt 0.712624 0.299949
vt 0.598201 0.606544
vt 0.690970 0.819132
vt 0.659720 0.694132
vt 0.724189 0.161176
vt 0.610505 0.781260
vt 0.610505 0.656260
vt 0.660701 0.856544
vt 0.598201 0.731544
vt 0.314670 0.415252
vt 0.271512 0.328935
vt 0.314670 0.328935
vt 0.385343 0.746309
vt 0.322843 0.621309
vt 0.385343 0.621309
vt 0.353353 0.668294
vt 0.322103 0.793294
vt 0.290853 0.668294
vt 0.293091 0.069983
vt 0.314670 0.156300
vt 0.271512 0.156300
vt 0.314670 0.242618
vt 0.271512 0.242618
vt 0.379191 0.787412
vt 0.316691 0.662412
vt 0.379191 0.662412
vt 0.385343 0.871309
vt 0.322843 0.746309
vt 0.249932 0.069983
vt 0.228353 0.156300
vt 0.228353 0.328935
vt 0.228353 0.242618
vt 0.254191 0.787412
vt 0.254191 0.662412
vt 0.322843 0.871309
vt 0.260343 0.746309
vt 0.271512 0.415252
vt 0.260343 0.621309
vt 0.259603 0.793294
vt 0.228353 0.668294
vt 0.191691 0.787412
vt 0.191691 0.662412
vt 0.260343 0.871309
vt 0.197843 0.746309
vt 0.185194 0.156300
vt 0.228353 0.415252
vt 0.185194 0.328935
vt 0.197843 0.621309
vt 0.197103 0.793294
vt 0.165853 0.668294
vt 0.206774 0.069983
vt 0.185194 0.242618
vt 0.142036 0.156300
vt 0.185194 0.415252
vt 0.142036 0.328935
vt 0.135343 0.621309
vt 0.134603 0.793294
vt 0.103353 0.668294
vt 0.163615 0.069983
vt 0.142036 0.242618
vt 0.129191 0.787412
vt 0.129191 0.662412
vt 0.135343 0.871309
vt 0.135343 0.746309
vt 0.853583 0.727853
vt 0.791083 0.602853
vt 0.853583 0.602853
vt 0.902799 0.708897
vt 0.871549 0.833897
vt 0.840299 0.708897
vt 0.785670 0.071520
vt 0.807980 0.160760
vt 0.763360 0.160760
vt 0.807980 0.339240
vt 0.763360 0.250000
vt 0.807980 0.250000
vt 0.888034 0.663642
vt 0.825534 0.788642
vt 0.825534 0.663642
vt 0.853583 0.852853
vt 0.791083 0.727853
vt 0.807980 0.428480
vt 0.763360 0.339240
vt 0.741050 0.071520
vt 0.718740 0.160760
vt 0.718740 0.339240
vt 0.718740 0.250000
vt 0.763034 0.788642
vt 0.763034 0.663642
vt 0.791083 0.852853
vt 0.728583 0.727853
vt 0.763360 0.428480
vt 0.728583 0.602853
vt 0.809049 0.833897
vt 0.777799 0.708897
vt 0.728583 0.852853
vt 0.666083 0.727853
vt 0.674120 0.160760
vt 0.718740 0.428480
vt 0.674120 0.339240
vt 0.666083 0.602853
vt 0.746549 0.833897
vt 0.715299 0.708897
vt 0.696430 0.071520
vt 0.674120 0.250000
vt 0.700534 0.788642
vt 0.700534 0.663642
vt 0.629500 0.160760
vt 0.674120 0.428480
vt 0.629500 0.339240
vt 0.603583 0.602853
vt 0.684049 0.833897
vt 0.652799 0.708897
vt 0.651810 0.071520
vt 0.629500 0.250000
vt 0.638034 0.663642
vt 0.603583 0.852853
vt 0.603583 0.727853
vt 0.277775 0.368329
vt 0.348892 0.844240
vt 0.248500 0.796024
vt 0.197078 0.368329
vt 0.098892 0.844240
vt 0.123500 0.796024
vt 0.798005 0.781260
vt 0.848201 0.856544
vt 0.758882 0.346207
vt 0.673005 0.781260
vt 0.712624 0.346207
vt 0.598201 0.856544
vt 0.316691 0.787412
vt 0.197843 0.871309
vt 0.142036 0.415252
vt 0.888034 0.788642
vt 0.666083 0.852853
vt 0.629500 0.428480
vt 0.638034 0.788642
s 0
usemtl node
f 114/1/1 13/2/1 5/3/1
f 3/4/2 11/5/2 4/6/2
f 113/7/3 9/8/3 2/9/3
f 112/10/4 1/11/4 7/12/4
f 6/13/5 5/3/5 13/2/5
f 114/1/6 11/5/6 12/14/6
f 2/15/7 10/16/7 3/17/7
f 113/7/8 7/18/8 8/19/8
f 8/19/9 16/20/9 9/8/9
f 7/12/10 1/21/10 14/22/10
f 6/23/11 13/2/11 20/24/11
f 11/5/12 19/25/12 12/14/12
f 9/26/13 17/27/13 10/16/13
f 7/18/14 15/28/14 8/19/14
f 12/14/15 20/24/15 13/2/15
f 11/5/16 17/29/16 18/30/16
f 6/31/17 20/24/17 27/32/17
f 19/25/18 25/33/18 26/34/18
f 17/27/19 23/35/19 24/36/19
f 14/37/20 22/38/20 15/28/20
f 19/25/21 27/32/21 20/24/21
f 17/29/22 25/33/22 18/30/22
f 15/28/23 23/39/23 16/20/23
f 14/22/24 1/40/24 21/41/24
f 21/42/25 29/43/25 22/38/25
f 26/34/26 34/44/26 27/32/26
f 25/33/27 31/45/27 32/46/27
f 23/39/28 29/43/28 30/47/28
f 21/41/29 1/48/29 28/49/29
f 6/50/30 27/32/30 34/44/30
f 25/33/31 33/51/31 26/34/31
f 23/35/32 31/52/32 24/36/32
f 34/53/33 40/54/33 41/55/33
f 31/56/34 39/57/34 32/58/34
f 29/59/35 37/60/35 30/61/35
f 28/62/36 1/63/36 35/64/36
f 6/65/37 34/53/37 41/55/37
f 32/58/38 40/54/38 33/66/38
f 30/67/39 38/68/39 31/69/39
f 29/59/40 35/70/40 36/71/40
f 35/64/41 1/72/41 42/73/41
f 6/74/42 41/55/42 48/75/42
f 39/57/43 47/76/43 40/54/43
f 38/68/44 44/77/44 45/78/44
f 36/71/45 42/79/45 43/80/45
f 41/55/46 47/76/46 48/75/46
f 38/81/47 46/82/47 39/57/47
f 36/71/48 44/83/48 37/60/48
f 47/76/49 53/84/49 54/85/49
f 44/77/50 52/86/50 45/78/50
f 42/79/51 50/87/51 43/80/51
f 47/76/52 55/88/52 48/75/52
f 46/82/53 52/89/53 53/84/53
f 43/80/54 51/90/54 44/83/54
f 42/73/55 1/91/55 49/92/55
f 6/93/56 48/75/56 55/88/56
f 55/88/57 61/94/57 62/95/57
f 52/89/58 60/96/58 53/84/58
f 50/87/59 58/97/59 51/90/59
f 49/92/60 1/98/60 56/99/60
f 6/100/61 55/88/61 62/95/61
f 53/84/62 61/94/62 54/85/62
f 52/86/63 58/101/63 59/102/63
f 49/103/64 57/104/64 50/87/64
f 59/105/65 67/106/65 60/107/65
f 57/108/66 65/109/66 58/110/66
f 56/111/67 1/112/67 63/113/67
f 6/114/68 62/115/68 69/116/68
f 61/117/69 67/106/69 68/118/69
f 58/119/70 66/120/70 59/121/70
f 56/122/71 64/123/71 57/108/71
f 61/117/72 69/116/72 62/115/72
f 6/124/73 69/116/73 76/125/73
f 68/118/74 74/126/74 75/127/74
f 66/120/75 72/128/75 73/129/75
f 63/130/76 71/131/76 64/123/76
f 69/116/77 75/127/77 76/125/77
f 66/132/78 74/126/78 67/106/78
f 64/123/79 72/133/79 65/109/79
f 63/113/80 1/134/80 70/135/80
f 73/129/81 79/136/81 80/137/81
f 70/138/82 78/139/82 71/131/82
f 75/127/83 83/140/83 76/125/83
f 73/141/84 81/142/84 74/126/84
f 71/131/85 79/143/85 72/133/85
f 70/135/86 1/144/86 77/145/86
f 6/146/87 76/125/87 83/140/87
f 75/127/88 81/142/88 82/147/88
f 82/147/89 90/148/89 83/140/89
f 80/149/90 88/150/90 81/142/90
f 78/139/91 86/151/91 79/143/91
f 77/145/92 1/152/92 84/153/92
f 6/154/93 83/140/93 90/148/93
f 82/147/94 88/150/94 89/155/94
f 80/137/95 86/156/95 87/157/95
f 78/139/96 84/158/96 85/159/96
f 85/160/97 93/161/97 86/162/97
f 84/163/98 1/164/98 91/165/98
f 6/166/99 90/167/99 97/168/99
f 88/169/100 96/170/100 89/171/100
f 87/172/101 93/173/101 94/174/101
f 84/175/102 92/176/102 85/160/102
f 89/171/103 97/168/103 90/167/103
f 87/177/104 95/178/104 88/169/104
f 6/179/105 97/168/105 104/180/105
f 96/170/106 102/181/106 103/182/106
f 94/174/107 100/183/107 101/184/107
f 91/185/108 99/186/108 92/176/108
f 96/170/109 104/180/109 97/168/109
f 94/187/110 102/181/110 95/178/110
f 92/176/111 100/188/111 93/161/111
f 91/165/112 1/189/112 98/190/112
f 98/191/113 106/192/113 99/186/113
f 103/182/114 111/193/114 104/180/114
f 101/194/115 109/195/115 102/181/115
f 99/186/116 107/196/116 100/188/116
f 98/190/117 1/197/117 105/198/117
f 6/199/118 104/180/118 111/193/118
f 103/182/119 109/195/119 110/200/119
f 101/184/120 107/201/120 108/202/120
f 110/200/121 5/203/121 111/193/121
f 108/204/122 4/205/122 109/195/122
f 106/192/123 2/206/123 107/196/123
f 105/198/124 1/207/124 112/208/124
f 6/209/125 111/193/125 5/203/125
f 110/200/126 4/205/126 114/210/126
f 107/201/127 3/211/127 108/202/127
f 106/192/128 112/212/128 113/213/128
f 114/1/1 12/14/1 13/2/1
f 3/4/2 10/214/2 11/5/2
f 113/7/3 8/19/3 9/8/3
f 114/1/6 4/6/6 11/5/6
f 2/15/7 9/26/7 10/16/7
f 113/7/8 112/215/8 7/18/8
f 8/19/9 15/28/9 16/20/9
f 11/5/12 18/30/12 19/25/12
f 9/26/13 16/216/13 17/27/13
f 7/18/14 14/37/14 15/28/14
f 12/14/15 19/25/15 20/24/15
f 11/5/16 10/214/16 17/29/16
f 19/25/18 18/30/18 25/33/18
f 17/27/19 16/216/19 23/35/19
f 14/37/20 21/42/20 22/38/20
f 19/25/21 26/34/21 27/32/21
f 17/29/22 24/217/22 25/33/22
f 15/28/23 22/38/23 23/39/23
f 21/42/25 28/218/25 29/43/25
f 26/34/26 33/51/26 34/44/26
f 25/33/27 24/217/27 31/45/27
f 23/39/28 22/38/28 29/43/28
f 25/33/31 32/46/31 33/51/31
f 23/35/32 30/219/32 31/52/32
f 34/53/33 33/66/33 40/54/33
f 31/56/34 38/81/34 39/57/34
f 29/59/35 36/71/35 37/60/35
f 32/58/38 39/57/38 40/54/38
f 30/67/39 37/220/39 38/68/39
f 29/59/40 28/221/40 35/70/40
f 39/57/43 46/82/43 47/76/43
f 38/68/44 37/220/44 44/77/44
f 36/71/45 35/70/45 42/79/45
f 41/55/46 40/54/46 47/76/46
f 38/81/47 45/222/47 46/82/47
f 36/71/48 43/80/48 44/83/48
f 47/76/49 46/82/49 53/84/49
f 44/77/50 51/223/50 52/86/50
f 42/79/51 49/103/51 50/87/51
f 47/76/52 54/85/52 55/88/52
f 46/82/53 45/222/53 52/89/53
f 43/80/54 50/87/54 51/90/54
f 55/88/57 54/85/57 61/94/57
f 52/89/58 59/224/58 60/96/58
f 50/87/59 57/104/59 58/97/59
f 53/84/62 60/96/62 61/94/62
f 52/86/63 51/223/63 58/101/63
f 49/103/64 56/225/64 57/104/64
f 59/105/65 66/132/65 67/106/65
f 57/108/66 64/123/66 65/109/66
f 61/117/69 60/107/69 67/106/69
f 58/119/70 65/226/70 66/120/70
f 56/122/71 63/130/71 64/123/71
f 61/117/72 68/118/72 69/116/72
f 68/118/74 67/106/74 74/126/74
f 66/120/75 65/226/75 72/128/75
f 63/130/76 70/138/76 71/131/76
f 69/116/77 68/118/77 75/127/77
f 66/132/78 73/141/78 74/126/78
f 64/123/79 71/131/79 72/133/79
f 73/129/81 72/128/81 79/136/81
f 70/138/82 77/227/82 78/139/82
f 75/127/83 82/147/83 83/140/83
f 73/141/84 80/149/84 81/142/84
f 71/131/85 78/139/85 79/143/85
f 75/127/88 74/126/88 81/142/88
f 82/147/89 89/155/89 90/148/89
f 80/149/90 87/228/90 88/150/90
f 78/139/91 85/159/91 86/151/91
f 82/147/94 81/142/94 88/150/94
f 80/137/95 79/136/95 86/156/95
f 78/139/96 77/227/96 84/158/96
f 85/160/97 92/176/97 93/161/97
f 88/169/100 95/178/100 96/170/100
f 87/172/101 86/229/101 93/173/101
f 84/175/102 91/185/102 92/176/102
f 89/171/103 96/170/103 97/168/103
f 87/177/104 94/187/104 95/178/104
f 96/170/106 95/178/106 102/181/106
f 94/174/107 93/173/107 100/183/107
f 91/185/108 98/191/108 99/186/108
f 96/170/109 103/182/109 104/180/109
f 94/187/110 101/194/110 102/181/110
f 92/176/111 99/186/111 100/188/111
f 98/191/113 105/230/113 106/192/113
f 103/182/114 110/200/114 111/193/114
f 101/194/115 108/204/115 109/195/115
f 99/186/116 106/192/116 107/196/116
f 103/182/119 102/181/119 109/195/119
f 101/184/120 100/183/120 107/201/120
f 110/200/121 114/210/121 5/203/121
f 108/204/122 3/231/122 4/205/122
f 106/192/123 113/213/123 2/206/123
f 110/200/126 109/195/126 4/205/126
f 107/201/127 2/232/127 3/211/127
f 106/192/128 105/230/128 112/212/128
